<svg height="512pt" viewBox="0 0 512 512" width="512pt" xmlns="http://www.w3.org/2000/svg" xmlns:xlink="http://www.w3.org/1999/xlink"><linearGradient id="a" gradientTransform="matrix(1 0 0 -1 0 -12310)" gradientUnits="userSpaceOnUse" x1="0" x2="512" y1="-12566" y2="-12566"><stop offset="0" stop-color="#00f38d"/><stop offset="1" stop-color="#009eff"/></linearGradient><path d="m512 256c0 141.386719-114.613281 256-256 256s-256-114.613281-256-256 114.613281-256 256-256 256 114.613281 256 256zm0 0" fill="url(#a)"/><g fill="#fff"><path d="m91 166h154.574219v30h-154.574219zm0 0"/><path d="m91 91h154.574219v30h-154.574219zm0 0"/><path d="m91 391h154.574219v30h-154.574219zm0 0"/><path d="m91 316h154.574219v30h-154.574219zm0 0"/><path d="m91 241h154.574219v30h-154.574219zm0 0"/><path d="m266.425781 166h154.574219v30h-154.574219zm0 0"/><path d="m266.425781 91h154.574219v30h-154.574219zm0 0"/><path d="m266.425781 316h154.574219v30h-154.574219zm0 0"/><path d="m266.425781 241h154.574219v30h-154.574219zm0 0"/></g></svg>